PathFileType	4	(x/y/z)	S02_M20_T11
DataRate	CameraRate	NumFrames	NumMarkers	Units	OrigDataRate	OrigDataStartFrame	OrigNumFrames
240	240	4	51	mm	240	350	466
Frame#	Time	Sternum			R.Acromium			L.Acromium			Top.Head			R.ASIS			L.ASIS			R.PSIS			L.PSIS			R.Great.Tro			L.Great.Tro			R.Iliac.Crest			L.Iliac.Crest			V.Sacral			R.Thigh.Upper.Post			R.Thigh.Lower.Ant			R.Thigh.Lower.Post			R.Thigh.Upper.Ant			R.Knee.Lat			R.Knee.Med			R.Shank.Upper.Post			R.Shank.Lower.Ant			R.Shank.Lower.Post			R.Shank.Upper.Ant			R.Ankle.Lat			R.Ankle.Med			R.Heel.Upper			R.Heel.Med			R.Heel.Lat			R.Toe.Lat			R.Toe.Med			R.Toe.Tip			L.Thigh.Upper.Post			L.Thigh.Lower.Ant			L.Thigh.Lower.Post			L.Thigh.Upper.Ant			L.Knee.Lat			L.Knee.Med			L.Shank.Upper.Post			L.Shank.Lower.Ant			L.Shank.Lower.Post			L.Shank.Upper.Ant			L.Ankle.Lat			L.Ankle.Med			L.Heel.Upper			L.Heel.Med			L.Heel.Lat			L.Toe.Lat			L.Toe.Med			L.Toe.Tip			Cervical.Spine			Back			
		X1	Y1	Z1	X2	Y2	Z2	X3	Y3	Z3	X4	Y4	Z4	X5	Y5	Z5	X6	Y6	Z6	X7	Y7	Z7	X8	Y8	Z8	X9	Y9	Z9	X10	Y10	Z10	X11	Y11	Z11	X12	Y12	Z12	X13	Y13	Z13	X14	Y14	Z14	X15	Y15	Z15	X16	Y16	Z16	X17	Y17	Z17	X18	Y18	Z18	X19	Y19	Z19	X20	Y20	Z20	X21	Y21	Z21	X22	Y22	Z22	X23	Y23	Z23	X24	Y24	Z24	X25	Y25	Z25	X26	Y26	Z26	X27	Y27	Z27	X28	Y28	Z28	X29	Y29	Z29	X30	Y30	Z30	X31	Y31	Z31	X32	Y32	Z32	X33	Y33	Z33	X34	Y34	Z34	X35	Y35	Z35	X36	Y36	Z36	X37	Y37	Z37	X38	Y38	Z38	X39	Y39	Z39	X40	Y40	Z40	X41	Y41	Z41	X42	Y42	Z42	X43	Y43	Z43	X44	Y44	Z44	X45	Y45	Z45	X46	Y46	Z46	X47	Y47	Z47	X48	Y48	Z48	X49	Y49	Z49	X50	Y50	Z50	X51	Y51	Z51	

350	1.4542	365.4	1077.3	254.89	266.2	1319.3	386.06	248.45	1308.3	95.411	316.57	1595.7	221.98	324.31	891.43	377.09	355.3	901.29	162.97	123.05	944.74	301.84	124.71	955.8	228.05	233.43	768.24	454.46	252.89	822.99	63.469	223.03	942.54	428.42	236.92	958.4	87.355	97.977	904.43	251.56	251.52	577.08	455.03	313	496.6	441.51	240.41	487.7	442.4	319.96	585.85	449.96	253.66	412.12	439.05	273.43	387.91	296.85	57.959	350.59	400.37	31.483	244.28	385.98	1.0048	305.11	387.17	86.264	284.2	407.36	-65.287	236.75	369.56	-38.596	236.23	289.85	-95.688	283.58	310.54	-113.19	261.21	276.63	-128.81	266.98	339.73	-75.855	117.56	386.08	-45.102	92.693	282.49	-9.6671	60.442	343.65	285.49	587.11	95.154	381.56	535.6	111.86	309.73	503.66	123.34	348.3	621.01	84.741	385.76	452.23	128.58	373.66	456.55	264.15	304.26	279.65	133.99	371.49	193.43	157.5	300.64	207.52	153.25	368.46	267.49	137.78	324.04	95.732	170.66	329.99	95.605	254.89	260.82	66.528	208.39	269.49	41.803	243.02	266.21	38.023	181.13	432.97	35.039	152.9	453.26	46.034	262.7	513.39	62.355	216.29	179.91	1376	243.5	103.09	1124.8	269.45
351	1.4583	370.22	1078.4	254.92	270.74	1320.5	385.98	253.64	1309.4	95.113	321.96	1596.9	221.99	329.26	892.96	376.95	360.15	902.03	162.77	127.98	946.2	301.33	129.67	957.17	227.52	238.83	769.82	454.19	256.9	823.75	63.319	227.71	944.05	427.96	241.98	959.37	87.004	102.84	905.87	251.08	260.12	578.7	455.35	322.53	498.94	441.77	250.05	489.18	442.76	328.42	588.27	450.14	264.33	413.7	439.3	283.98	389.97	296.98	69.178	350.58	400.48	43.715	244.08	385.73	12.665	304.62	387.17	98.121	284.44	407.2	-53.141	235.87	369.29	-26.404	235.69	289.65	-84.686	281.81	310.07	-101.67	258.91	276.25	-117.42	264.61	339.33	-61.083	116.73	386.32	-29.819	92.047	282.9	6.3611	60.992	344.2	287.82	587.79	95.31	383.53	535.49	111.74	311.47	504.14	123.45	350.89	621.15	84.679	387.05	452.14	128.47	375.52	456.55	264.1	304.87	279.85	134.02	371.85	193.39	157.44	301.04	207.74	153.29	369.04	267.46	137.72	324.11	95.852	170.65	330.07	95.709	254.91	260.84	66.611	208.41	269.52	41.873	243.03	266.23	38.117	181.14	432.98	35.033	152.91	453.29	45.99	262.72	513.44	62.272	216.3	184.87	1377.3	243.05	108.04	1126	268.59
352	1.4625	375.01	1079.5	254.96	275.24	1321.8	385.89	258.81	1310.4	94.829	327.33	1598.1	222.03	334.2	894.51	376.79	364.98	902.8	162.57	132.9	947.68	300.85	134.61	958.56	227.03	244.25	771.42	453.95	260.84	824.52	63.187	232.39	945.58	427.51	246.99	960.33	86.676	107.69	907.33	250.65	268.7	580.37	455.66	332.02	501.34	442	259.67	490.72	443.1	336.84	590.74	450.3	274.98	415.35	439.49	294.54	392.11	297.07	80.399	350.47	400.6	56.05	243.78	385.49	24.376	303.98	387.17	110.04	284.62	407.03	-40.88	234.78	369.06	-14.121	234.96	289.47	-73.585	279.8	309.65	-90.022	256.36	275.92	-105.9	261.98	338.98	-46.12	115.72	386.6	-14.367	91.268	283.32	22.575	61.439	344.75	290.12	588.49	95.478	385.45	535.4	111.64	313.17	504.63	123.56	353.44	621.31	84.63	388.29	452.06	128.37	377.33	456.57	264.06	305.46	280.05	134.04	372.19	193.38	157.38	301.43	207.96	153.32	369.6	267.44	137.67	324.18	95.977	170.64	330.15	95.821	254.93	260.86	66.699	208.43	269.55	41.949	243.03	266.26	38.215	181.15	433	35.024	152.91	453.33	45.949	262.74	513.49	62.189	216.3	189.81	1378.5	242.62	112.96	1127.3	267.72
353	1.4667	379.79	1080.7	255.01	279.72	1323	385.8	263.96	1311.5	94.559	332.68	1599.3	222.1	339.14	896.08	376.61	369.77	903.6	162.35	137.82	949.17	300.4	139.52	959.95	226.57	249.69	773.05	453.73	264.7	825.29	63.075	237.1	947.14	427.07	251.95	961.28	86.373	112.51	908.8	250.27	277.23	582.07	455.96	341.47	503.79	442.18	269.25	492.32	443.41	345.21	593.25	450.44	285.58	417.07	439.64	305.08	394.32	297.15	91.622	350.26	400.71	68.487	243.36	385.27	36.138	303.2	387.19	122.02	284.74	406.86	-28.504	233.49	368.87	-1.7458	234.03	289.32	-62.379	277.55	309.26	-78.254	253.57	275.63	-94.253	259.09	338.69	-30.975	114.56	386.9	1.2481	90.364	283.77	38.958	61.788	345.31	292.39	589.2	95.655	387.33	535.32	111.56	314.83	505.15	123.68	355.95	621.48	84.592	389.5	452.01	128.28	379.07	456.59	264.03	306.01	280.27	134.06	372.51	193.38	157.32	301.8	208.2	153.36	370.13	267.45	137.61	324.25	96.107	170.62	330.23	95.939	254.94	260.89	66.793	208.44	269.59	42.03	243.03	266.29	38.316	181.15	433.01	35.013	152.92	453.37	45.911	262.75	513.54	62.105	216.3	194.73	1379.7	242.19	117.86	1128.5	266.86
